<svg xmlns="http://www.w3.org/2000/svg" version="1.1" width="600px" height="600px" viewBox="0 0 200 200" style="overflow:hidden!important;"><g id="svga-group-wrapper"><g id="svga-group-backs-single"></g><g id="svga-group-humanwrap-move" transform="matrix(1,0,0,1,0,0)"><g id="svga-group-humanwrap"><g id="svga-group-hair-back-move" transform="matrix(1,0,0,1,0,0)"><g id="svga-group-hair-back"><path id="SvgjsPath9049" d="M156.2 138.1c3.7 10.9 9.7 17.5 2.9 25.5-6.9 8-7.1 9.2-15.4 13.2s-79.6 3.7-86.1-3.7S48 157.6 46 139s-1.1-38.6 1.1-44.4c2.3-5.7 4.9-24 17.7-28.3s63-6.6 72.1-.9 18.9 8.6 20.3 21.5 0 16.3.9 29.5-1.9 21.7-1.9 21.7z" fill="#1b141c" stroke-width="none" opacity="1" stroke="none"></path><path id="SvgjsPath9050" d="M67.1 120.9c1.5 3.2 1.8 10.2-1.6 13.8-2.4 2.6-3.8 7.2 1.3 15.3 5.1 8.1 7.3 9 6.8 13.9s-5.4 16.1-.2 9.5c5.1-6.6 7.4-15.2 4-20.1s-4.9-9.3-4.7-15.6c.2-6.3.4-9.2.4-9.2l-6-7.6zm61.7 5.4c4.4 5.4 9.8 1.5 6.1 8.3-3.7 6.8-7.8 9.3-5.1 15.1 2.7 5.9 10.5 6.3 10.2 13.2-.2 6.8-7.3 16.4-7.3 16.4s6.3-12.4 2.7-16.1-14.9-9.5-10.6-20.6c2.1-5.3 7.2-10.9 5.9-12.6s-1.9-3.7-1.9-3.7z" fill="#2a232b" stroke-width="none" opacity="1" stroke="none"></path></g></g><g id="svga-group-humanbody-back"><path id="SvgjsPath8083" d="m168.5 219.5-1.7-21.5s.7-9-8.8-15.3-23.4-10.1-29.5-14.2c-6.1-4.1-9.2-4.5-9-16.9s.9-40.3.9-40.3H79.6s.7 27.9.9 40.3c.2 12.4-2.9 12.8-9 16.9-6.1 4.1-20 7.9-29.5 14.2S33.2 198 33.2 198l-1.6 21.5h136.9z" fill="#f4baa3" stroke-width="none" opacity="1" stroke="none"></path></g><g id="svga-group-chinshadow-single"><path id="SvgjsPath8079" d="M100 160.9s9.1.44 19.5-7.32c-.01-.63-.01-1.28 0-1.98.2-12.4.9-40.3.9-40.3H79.6s.7 27.9.9 40.3c.01.7.01 1.36 0 1.98 10.4 7.76 19.5 7.32 19.5 7.32z" fill="#d58464" stroke-width="none" opacity="0.65" stroke="none"></path></g><g id="svga-group-humanbody-front"><path id="SvgjsPath8084" d="M73.8 175.9c5.1 2.9 11.8 5.2 17.6 5.7.4 0 .4-.6.1-.7-2.8-1.1-5.9-1.7-8.8-2.6-2.9-.9-5.8-2-8.8-2.7-.1-.1-.3.2-.1.3zm35.2 6.2c5.3-.6 11.3-3 15.9-5.8.3-.2.1-.6-.2-.5-2.6.9-5.2 2-7.8 2.9-2.6.9-5.4 1.5-8 2.5-.5.1-.5.9.1.9z" fill="#d58464" stroke-width="none" opacity="1" stroke="none"></path><path id="SvgjsPath8085" d="m168.4 219.4-2.1-21.4c0-2.2-.5-4.5-1.5-6.6-.9-2.1-2.3-3.9-3.9-5.5s-3.5-2.8-5.5-4c-2-1.2-4.1-2.2-6.2-3.1-4.2-1.9-8.6-3.6-12.9-5.4-2.2-.9-4.3-1.9-6.4-3-1.1-.6-2.1-1.2-3-1.9-1-.6-2-1.2-3-1.9s-2-1.5-2.8-2.6c-.8-1-1.3-2.2-1.7-3.4-.7-2.4-.8-4.8-.8-7.2 0-4.7.2-9.4.3-14.1.2-9.4.6-18.7.9-28l.6.6-20.4-.2-20.4-.1.3-.3.7 28c.1 4.7.3 9.3.4 14 0 2.4-.1 4.7-.8 7.1-.3 1.2-.9 2.3-1.6 3.3-.8 1-1.7 1.8-2.7 2.5s-2 1.3-2.9 2c-.9.6-1.9 1.3-3 1.9-2.1 1.2-4.2 2.1-6.4 3.1-4.3 1.9-8.6 3.6-12.8 5.6-2.1 1-4.2 2.1-6.1 3.2-2 1.2-3.8 2.4-5.4 4-1.6 1.6-2.9 3.4-3.8 5.4-.4 1-.8 2.1-1 3.1-.2 1.1-.4 2.2-.3 3.2v.2l-1.5 21.5-1-1.1 34 .1c11.3 0 22.7.1 34.1.2l34.2.3 34.4.5zm.2.2-34 .4-34.2.3c-11.4.1-22.9.2-34.4.2l-34.4.1h-1.1l.1-1.1 1.7-21.5v.1c-.1-5.1 2.2-9.8 5.7-13.3 1.7-1.7 3.8-3.1 5.8-4.3 2-1.2 4.2-2.2 6.3-3.2 4.3-2 8.7-3.7 13-5.4 2.1-.9 4.3-1.8 6.3-2.9 1-.5 1.9-1.1 3-1.8 1-.6 2-1.2 2.9-1.9.9-.6 1.8-1.4 2.4-2.2.7-.9 1.2-1.9 1.5-2.9.6-2.1.8-4.5.8-6.8 0-4.6-.1-9.3-.2-14l-.6-28v-.3h.3l20.4-.1 20.4-.2h.6v.6c-.1 9.3-.2 18.7-.4 28-.1 4.7-.2 9.4-.2 14 .1 2.3.2 4.6.8 6.7.3 1.1.8 2 1.4 2.9.6.8 1.4 1.6 2.4 2.2.9.6 1.9 1.3 2.9 1.9 1 .7 1.9 1.3 2.9 1.8 2 1.1 4.1 2.1 6.3 3 4.3 1.8 8.6 3.6 12.9 5.6 2.1 1 4.2 2.1 6.2 3.3 2 1.2 4 2.6 5.7 4.3 3.4 3.4 5.6 8.1 5.4 13v-.1l1.4 21.6zm-112.8-.4 1.9-13.8.1 13.8h-2zm88.6 0-1.9-13.8-.1 13.8h2z" fill="#c66c49" stroke-width="none" opacity="1" stroke="none"></path></g><g id="svga-group-clothes-single"><path id="SvgjsPath9378" d="M76.4 200.1c-6.6-13.5-9.4-30.5-9.4-30.5-2.2-.9-3.6.8-3.6.8-1.2-.4-3.4 1.5-3.4 1.5-2.2-.5-3.5 1.5-3.5 1.5-3.2 0-3.4 2-3.4 2s1.4 12.2 1.5 23.4c.1 11.1-2.4 21.2-2.4 21.2h39.4c.1 0-8.6-6.4-15.2-19.9zm68.9-1.3c.1-11.1 1.5-23.4 1.5-23.4s-.1-2-3.4-2c0 0-1.2-2-3.5-1.5 0 0-2.1-1.9-3.4-1.5 0 0-1.4-1.6-3.6-.8 0 0-2.8 17-9.4 30.5S108.3 220 108.3 220h39.4s-2.5-10.1-2.4-21.2z" fill="#a44974" stroke-width="none" opacity="1"></path><path id="SvgjsPath9379" d="M91.9 219.7c-1.8-1.5-3.5-3.2-5-5-1.5-1.8-3-3.7-4.3-5.6-2.6-3.9-4.9-8.1-6.8-12.4-1.9-4.3-3.5-8.8-4.9-13.3-.7-2.3-1.3-4.6-2-6.9-.7-2.3-1.2-4.6-1.8-7-.7-.3-1.3-.4-2.1-.3-.3.1-.7.2-1 .3-.3.1-.5.3-.7.5-.3-.1-.7 0-1 0-.3.1-.7.2-1 .4l-1.5.9c-.7-.1-1.4-.1-2.1.2-.4.1-.7.4-1 .6l-.6.6c-.7 0-1.4.1-2.1.4-.4.2-.8.4-1.1.8-.3.4-.5.7-.6 1.3v.2c.3 3.7.6 7.4.7 11.1.2 3.7.3 7.4.4 11.1.1 3.7-.1 7.4-.5 11.1-.4 3.7-.9 7.4-1.7 10.9v.2c0 .5.4.9.9.9l9.9-.2 9.9-.2c3.3-.1 6.6-.2 9.9-.2h9.9c.1 0 .2 0 .3-.1.1.1.1-.1-.1-.3zm-10 0c-3.3 0-6.6-.1-9.9-.2l-9.9-.3-8.7-.1c.8-3.3 1.3-6.7 1.7-10 .5-3.8.7-7.6.5-11.3-.1-3.8-.3-7.5-.7-11.2-.3-3.7-.7-7.4-1.2-11.1 0-.1.1-.4.2-.5.2-.2.4-.4.6-.5.2-.1.5-.2.8-.3.3-.1.6-.1 1-.1.2 3.4.4 6.9.6 10.3.3 3.6.6 7.2.9 10.9l.5 5.4c.2 1.8.2 3.6.3 5.4v5.4c0 1.8-.1 3.6-.1 5.4.5-3.6.8-7.2.9-10.9.1-1.8 0-3.6-.1-5.5l-.5-5.4c-.4-3.6-.7-7.2-1.2-10.8-.4-3.4-.8-6.8-1.4-10.3.2 0 .3-.1.4-.2.1-.2.3-.5.5-.6.2-.2.5-.4.7-.5.5-.3 1.1-.3 1.7-.2.1 0 .2 0 .3-.1.4-.4.9-.8 1.4-1.1.5-.3 1.1-.6 1.6-.5.1 0 .2 0 .3-.1.2-.2.4-.4.7-.6.3-.2.5-.3.8-.4.3-.1.6-.1.9-.1.3 0 .6.1.9.1.5 4.7 1.5 9.4 2.7 14.1.3 1.2.6 2.3.9 3.5.4 1.1.7 2.3 1.1 3.4.7 2.3 1.6 4.5 2.6 6.8 1.9 4.4 4.3 8.7 7.2 12.5 2.7 3.6 5.8 6.9 9.3 9.7h-8.3zm-6.6-9.4c-1.3-3.1-2.3-6.4-3.3-9.6-1-3.3-1.9-6.5-2.9-9.8l-5.7-19.7c.8 3.3 1.6 6.6 2.4 10l2.6 9.9c.9 3.3 1.8 6.6 2.8 9.9.5 1.6 1 3.3 1.5 4.9.5 1.6 1.1 3.3 1.8 4.9.3.7.6 1.5.8 2.3.2.8.1 1.6-.3 2-.4.4-1.1.1-1.7-.4-.6-.5-1-1.2-1.3-2-1.2-3.1-1.8-6.5-2.7-9.8-.8-3.3-1.5-6.6-2.2-10l-2.2-10c1.1 6.7 2.3 13.5 3.7 20.1.3 1.7.7 3.3 1.1 5 .4 1.7.8 3.3 1.4 5 .3.8.8 1.6 1.5 2.3.3.3.8.6 1.3.8.5.2 1.2.1 1.6-.3.4-.4.6-.9.7-1.4.1-.5 0-1 0-1.4-.2-1.1-.5-1.9-.9-2.7zm-10.5-8.5c-.2-.7-.5-1.5-.7-2.2-.2-.7-.3-1.5-.5-2.2-.3-1.5-.5-3.1-.7-4.6l-2.7-18.6c.5 6.2 1.1 12.5 1.8 18.7.2 1.6.4 3.1.7 4.7.1.8.2 1.6.5 2.4.2.8.5 1.5.7 2.3 1 3 2.1 5.9 3 8.9.4 1.5.8 3 .8 4.4 0 .4-.1.7-.2.9-.2.2-.4.5-.7.6-.5.3-1.2.2-1.7-.2s-.8-1.1-1-1.8c-.2-.7-.3-1.5-.4-2.2l-.6-4.6-2.1-19c.3 6.3.8 12.5 1.3 18.8.1 1.6.3 3.1.5 4.7.1.8.2 1.6.4 2.4.2.8.6 1.6 1.3 2.2.7.7 1.8.9 2.7.4.4-.2.8-.5 1-1 .3-.5.3-.9.3-1.3.1-1.7-.4-3.2-.8-4.8-.8-3.1-1.9-6-2.9-8.9zm83.8 18c-.8-3.6-1.3-7.3-1.7-11-.4-3.7-.6-7.4-.5-11.1 0-3.7.2-7.4.4-11.1.2-3.7.5-7.4.7-11.1v-.2c-.1-.6-.3-1-.6-1.3-.3-.4-.7-.6-1.1-.8-.7-.3-1.4-.4-2.1-.4l-.6-.6c-.3-.2-.6-.4-1-.6-.6-.3-1.4-.3-2.1-.2-.5-.4-1-.7-1.5-.9-.3-.1-.6-.3-1-.4-.3-.1-.6-.1-.9 0-.2-.2-.5-.4-.7-.5-.3-.2-.6-.3-1-.3-.7-.1-1.4 0-2.1.3-.6 2.4-1.1 4.7-1.8 7-.6 2.3-1.3 4.6-2 6.9-1.4 4.5-3 9-4.9 13.3-1.9 4.3-4.2 8.4-6.8 12.4-1.3 2-2.7 3.9-4.3 5.6-1.5 1.8-3.2 3.5-5 5-.2.1-.2.3-.1.5.1.1.2.1.3.1 3.3-.1 6.6-.1 9.9 0 3.3 0 6.6.1 9.9.2l9.9.3 9.9.2c.5 0 .9-.4.9-.9-.1-.2-.1-.3-.1-.4zm-10.7-.6-9.9.3c-3.3.1-6.6.2-9.9.2h-8.9c3.5-2.8 6.6-6.1 9.3-9.7 2.9-3.8 5.3-8.1 7.2-12.5.9-2.2 1.8-4.5 2.6-6.8.4-1.1.7-2.3 1.1-3.4.3-1.2.6-2.3.9-3.5 1.2-4.6 2.2-9.4 2.7-14.1.3-.1.6-.1.9-.1.3 0 .6 0 .9.1.3.1.6.2.8.4s.5.4.7.6c.1.1.2.1.3.1.5-.1 1.1.2 1.6.5s1 .7 1.4 1.1c.1.1.2.1.3.1.6-.1 1.2 0 1.7.2.2.1.5.3.7.5.2.2.4.4.5.6.1.1.2.2.4.2-.5 3.4-.9 6.8-1.4 10.3l-1.2 10.8-.5 5.4c-.1 1.8-.2 3.7-.1 5.5.1 3.6.4 7.3.9 10.9 0-1.8-.1-3.6-.1-5.4 0-1.8-.1-3.6 0-5.4.1-1.8.1-3.6.3-5.4l.6-5.4c.3-3.6.7-7.2.9-10.9.3-3.4.5-6.9.6-10.3.3 0 .6.1 1 .1l.9.3c.2.1.5.3.6.5.1.2.2.4.2.5-.5 3.7-.9 7.4-1.2 11.1-.3 3.7-.6 7.5-.6 11.2-.1 3.8.1 7.6.5 11.3.4 3.4 1 6.7 1.7 10l-8.4.1zm-2.8-36.4-2.2 10c-.7 3.3-1.5 6.7-2.2 10-.8 3.3-1.5 6.7-2.7 9.8-.3.7-.7 1.4-1.3 2-.5.5-1.3.8-1.7.4-.4-.4-.5-1.2-.3-2 .1-.8.4-1.6.8-2.3.7-1.6 1.2-3.2 1.8-4.9s1-3.3 1.5-4.9c1-3.3 1.9-6.6 2.8-9.9l2.6-9.9c.8-3.3 1.6-6.6 2.4-10l-5.7 19.7c-1 3.3-1.9 6.6-2.9 9.8-1 3.2-2 6.6-3.3 9.6-.4.8-.7 1.6-.8 2.6-.1.4-.1.9 0 1.4.1.5.2 1 .7 1.4.4.4 1.2.5 1.6.3.5-.1.9-.4 1.3-.8.7-.7 1.1-1.5 1.5-2.3.6-1.7 1-3.3 1.4-5 .4-1.7.8-3.3 1.1-5 1.4-6.5 2.6-13.2 3.6-20zm1 19.3c.2-.8.5-1.5.7-2.3s.3-1.6.5-2.4c.2-1.6.5-3.1.7-4.7.7-6.2 1.4-12.5 1.9-18.7l-2.7 18.6c-.2 1.6-.4 3.1-.7 4.6-.1.8-.3 1.5-.5 2.2-.2.7-.5 1.5-.7 2.2-1 2.9-2.2 5.9-3 8.9-.4 1.5-.8 3.1-.8 4.8 0 .4.1.9.4 1.3.3.4.6.7 1 1 .9.5 2 .3 2.7-.4.7-.6 1-1.4 1.3-2.2.2-.8.3-1.6.4-2.4.2-1.6.4-3.1.5-4.7.6-6.2 1-12.5 1.3-18.8l-2.1 18.7-.6 4.6c-.1.8-.2 1.5-.4 2.2-.2.7-.5 1.4-1 1.8-.5.4-1.1.5-1.7.2-.3-.1-.5-.4-.7-.6-.1-.2-.2-.6-.2-.9 0-1.4.4-3 .8-4.4.8-2.7 1.9-5.6 2.9-8.6z" fill="#852150" stroke-width="none" opacity="1"></path><path id="SvgjsPath9380" d="M134 171.6c-3.8 15.4-6.6 33-18.8 44.3-.3.3.1.9.5.6 5.9-4.4 9.2-11.4 11.9-18.1 3.4-8.4 6.4-17.7 6.9-26.8 0-.2-.4-.3-.5 0zm11.2 3.4c-2.3 9-2.8 19.7-1.9 28.9 0 .2.3.2.3 0 .6-9.6 1.5-19.3 2-28.9 0-.2-.4-.2-.4 0zm-3.9 2.4c-1 6.6-1.7 13.6-1.8 20.3 0 .1.1.1.1 0 1.2-6.6 1.9-13.5 2.1-20.3 0-.2-.4-.3-.4 0zm-4.1 5.2c-1.7 11.1-4.1 21.6-7.4 32.3-.1.2.2.3.3.1 4.6-10 7.3-21.4 7.5-32.4.1-.2-.3-.2-.4 0zm1.2-10.8c-.5-.2-1.3-.2-1.6.3-.1.2 0 .5.3.5s.6-.1.9 0c.4.1.6.4.7.7.1.3.6.3.6-.1 0-.5-.3-1.1-.9-1.4zm-72.7-.9c-.1-.3-.5-.2-.5.1 1.2 8.4 3.7 17 6.9 24.8.2.4.7.2.6-.2-2.3-8.2-4.5-16.5-7-24.7zm-2.4.7c.3-.1.3-.6-.1-.6-3.3-.2-2.3 3.4-1.9 5.6 1.4 7.6 2.6 15.4 4.7 22.9 0 .1.3.1.3 0-.3-3.6-6.2-26.8-3-27.9zm-7 15.1c-.3-2.3-2.2-9.3-.2-11.1.2-.2 0-.5-.2-.4-3.2.8-1.1 6.9-.8 9 1.3 9 2.7 17.1.4 26.1-.1.2.3.3.3.1 1.8-5.3 1.8-10.8 1.4-16.3-.3-2.5-.6-5-.9-7.4z" fill="#b36288" stroke-width="none" opacity="1"></path></g><g id="svga-group-head" transform="matrix(1,0,0,1,0,0)"><g id="svga-group-ears-left-move" transform="matrix(1,0,0,1,0,0)"><g id="svga-group-ears-left"><path id="SvgjsPath10018" d="M64 93.7s-2.3-2.2-5-3.3-5.7.7-6.6 3.4 1.2 14 4.7 18.1 5.8 4.4 8.1 2.3c2.3-2 6.4-9.9-1.2-20.5z" fill="#f4baa3" stroke-width="none" opacity="1" stroke="none"></path><path id="SvgjsPath10019" d="M65.2 95.3c.4.6.7 1.2 1.1 1.8.4.6.7 1.3 1 1.9.3.7.6 1.3.8 2 .2.7.5 1.4.6 2.2.1.4.1.8.2 1.1l.1 1.2c0 1.6-.2 3.1-.6 4.6-.5 1.5-1.1 2.8-2.1 3.9-.2.3-.5.5-.7.8-.3.2-.5.4-.8.6-.6.4-1.2.7-1.9.7-.7.1-1.4 0-2-.3s-1.2-.7-1.7-1.1-1-.9-1.5-1.5c-.5-.5-.9-1.1-1.3-1.7-1.5-2.5-2.4-5.3-3.2-8.1-.4-1.4-.7-2.8-1-4.3s-.5-2.9-.4-4.5c0-.4.1-.8.2-1.3.1-.2.1-.4.2-.6l.3-.5c.4-.7.9-1.2 1.4-1.7 1.1-.9 2.4-1.3 3.7-1.1.6.1 1.3.3 1.8.6.6.3 1.1.6 1.7 1 1.1.7 2.1 1.5 3.1 2.4l1 1.9zm-4.4-3.8c-.6-.3-1.1-.5-1.7-.7-.6-.2-1.1-.3-1.7-.3-1.1.1-2.2.5-3.1 1.3-.4.4-.8.8-1.1 1.4-.1.3-.3.5-.4.8-.1.3-.2.5-.2.9-.2 1.3-.1 2.8.1 4.2.2 1.4.4 2.9.7 4.3.7 2.8 1.7 5.6 3.3 7.7.8 1 1.8 1.9 2.7 2.7 1 .7 2.1 1.2 3.1 1 .5-.1 1-.3 1.5-.6s.9-.7 1.3-1.2c.7-1 1.4-2.1 1.7-3.4.4-1.3.6-2.6.7-4 0-1.4-.1-2.8-.4-4.2-.6-2.8-1.8-5.4-3.4-7.6-.9-1-2-1.7-3.1-2.3z" fill="#e59e82" stroke-width="none" opacity="1" stroke="none"></path><path id="SvgjsPath10020" d="M55.9 93.3c3 .5 5 5.7 5.6 9.2.1.1.1.2.2.3.3.5-.4 1.1-.7.6-.4-.7-1-1.5-1.7-1.8-1.3-.5-2 1-1.7 2.5.4 1.7 1.5 2.8 2.5 4.1.1.1 0 .3-.1.2-1.6-1-4-4.5-2.9-6.7.8-1.6 2.1-1.3 3.2-.4-.7-2-1.3-4-2.8-5.5-.5-.5-1.4-1.3-2.1-1.2-1.2.2-1.2 2-1.3 3.1-.1 1.5.1 3.1.3 4.7 0 .2-.2.2-.2.1-.6-2.4-1.8-9.8 1.7-9.2z" fill="#d58464" stroke-width="none" opacity="1" stroke="none"></path></g></g><g id="svga-group-ears-right-move" transform="matrix(1,0,0,1,0,0)"><g id="svga-group-ears-right"><path id="SvgjsPath10021" d="M136 93.7s2.3-2.2 5-3.3 5.7.7 6.6 3.4-1.2 14-4.7 18.1-5.8 4.4-8.1 2.3c-2.3-2-6.4-9.9 1.2-20.5z" fill="#f4baa3" stroke-width="none" opacity="1" stroke="none"></path><path id="SvgjsPath10022" d="M136 93.6c1-.9 2-1.7 3.1-2.4.5-.4 1.1-.7 1.7-1 .6-.3 1.2-.5 1.8-.6 1.3-.1 2.6.2 3.7 1.1.5.4 1 1 1.4 1.7l.3.5c.1.2.1.4.2.6.1.4.2.9.2 1.3.1 1.6-.2 3.1-.4 4.5-.3 1.5-.6 2.9-1 4.3-.8 2.8-1.7 5.6-3.2 8.1-.4.6-.8 1.1-1.3 1.7-.4.5-.9 1-1.5 1.5-.5.4-1.1.8-1.7 1.1-.6.3-1.3.4-2 .3s-1.3-.4-1.9-.7c-.3-.2-.6-.4-.8-.6-.3-.2-.5-.5-.7-.8-.9-1.1-1.6-2.5-2.1-3.9-.4-1.5-.7-3-.6-4.6l.1-1.2c0-.4.1-.8.2-1.1.1-.8.4-1.5.6-2.2.3-.7.5-1.4.8-2s.6-1.3 1-1.9.7-1.2 1.1-1.8l1-1.9zm0 .1c-1.6 2.2-2.8 4.9-3.4 7.6-.3 1.4-.4 2.8-.4 4.2 0 1.4.2 2.7.7 4 .4 1.3 1 2.4 1.7 3.4.4.5.8.9 1.3 1.2.5.3.9.6 1.5.6 1 .2 2.1-.3 3.1-1 1-.8 1.9-1.7 2.7-2.7 1.6-2.1 2.6-4.9 3.3-7.7.4-1.4.6-2.8.7-4.3.2-1.4.2-2.9.1-4.2 0-.3-.1-.6-.2-.9-.1-.3-.2-.6-.4-.8-.3-.5-.7-1-1.1-1.4-.9-.7-1.9-1.2-3.1-1.3-.6 0-1.1.1-1.7.3-.6.2-1.1.4-1.7.7-1 .7-2.1 1.4-3.1 2.3z" fill="#e59e82" stroke-width="none" opacity="1" stroke="none"></path><path id="SvgjsPath10023" d="M144.1 93.3c-3 .5-5 5.7-5.6 9.2-.1.1-.1.2-.2.3-.3.5.4 1.1.7.6.4-.7 1-1.5 1.7-1.8 1.3-.5 2 1 1.7 2.5-.4 1.7-1.5 2.8-2.5 4.1-.1.1 0 .3.1.2 1.6-1 4-4.5 2.9-6.7-.8-1.6-2.1-1.3-3.2-.4.7-2 1.3-4 2.8-5.5.5-.5 1.4-1.3 2.1-1.2 1.2.2 1.2 2 1.3 3.1.1 1.5-.1 3.1-.3 4.7 0 .2.2.2.2.1.6-2.4 1.8-9.8-1.7-9.2z" fill="#d58464" stroke-width="none" opacity="1" stroke="none"></path></g></g><g id="svga-group-faceshape-wrap"><g id="svga-group-faceshape-single"><path id="SvgjsPath8064" d="M141 85.4c-1.2-28.5-19.61-43.51-40.91-43.51S60.2 57 59 85.4c0 0-.4 25.9 5.4 37.3 14.4 28.4 35.62 26.95 35.62 26.95s21.18 1.45 35.58-26.95c5.8-11.4 5.4-37.3 5.4-37.3z" fill="#f4baa3" stroke-width="none" opacity="1" stroke="none"></path><path id="SvgjsPath8065" d="M135.6 122.7c5.8-11.4 5.49-37.32 5.49-37.32-1.2-28.5-19.79-44.08-41.09-44.08S60.2 57 59 85.4c0 0-.4 25.9 5.4 37.3 14.4 28.4 35.6 27.5 35.6 27.5s21.2.9 35.6-27.5zm-41.7 25.17c-2-.51-4-1.31-6-2.22-3.9-1.82-7.4-4.45-10.5-7.48-1.6-1.52-3-3.14-4.4-4.85 0 0-3.2-4.45-3.9-5.36-.3-.51-.6-.91-.9-1.42-.3-.51-.6-.91-.9-1.42l-1.8-3.24s-.9-2.12-1.1-2.63-.4-1.01-.5-1.62c-.2-.51-.3-1.11-.5-1.62-.6-2.12-1.1-4.35-1.5-6.57s-.8-4.45-1-6.78c-.6-4.55-.9-9.1-1.1-13.75v-3.34l.1-1.72c0-.61.1-1.11.1-1.72.1-1.11.3-2.22.4-3.44.1-.61.2-1.11.3-1.72 0 0 .3-1.31.4-1.62 1-4.45 2.5-8.8 4.8-12.64.5-1.01 1.2-1.92 1.8-2.83l1-1.31c.3-.4.7-.91 1.1-1.31 1.4-1.72 3-3.34 4.7-4.75 3.4-2.83 7.3-4.96 11.4-6.47 4.1-1.42 8.4-2.12 12.8-2.22 2.2-.1 11 1.11 11.3 1.21 4.91 1.22 9.7 3.54 13.3 5.97.9.61 1.8 1.31 2.6 2.02l1.3 1.11 1.2 1.11c1.6 1.62 3 3.34 4.3 5.16.3.51 1.9 2.83 1.9 2.83.3.51 1.6 3.03 1.6 3.03.5 1.01.9 2.12 1.4 3.14.4 1.11.8 2.12 1.1 3.24.4 1.11.6 2.22.9 3.34.1.61.7 3.34.7 3.34l.28 1.94c.1.61.18 2.74.18 2.74l.06.93s-.01 8.78-.31 12.32-.51 6.76-1.11 10.3c-.3 1.72-.7 3.54-1.1 5.26-.4 1.72-.9 3.44-1.5 5.06s-1.2 3.24-2 4.75l-1.3 2.22c-.4.81-.9 1.52-1.4 2.22-1.9 2.93-4 5.66-6.3 8.19s-4.8 4.85-7.5 6.88c-1.4 1.01-2.8 1.92-4.2 2.73-1.5.81-3 1.52-4.5 2.12-.4.2-2 .71-2.4.81-.8.2-1.6.4-2.4.61s-6.63.63-10.9-.53z" fill="#c66c49" stroke-width="none" opacity="1" stroke="none"></path></g></g><g id="svga-group-mouth-single-move" transform="matrix(1,0,0,1,0,0)"><g id="svga-group-mouth-single"><path id="SvgjsPath11090" d="M86.9 128.1s2.9-.3 4.6-1 5.1-2.1 7.7-2.2 4.9.4 8 1.4 6.2 1.8 7.7 1.6c0 0-1.2 1.2-3.5 2.6s-5.8 2.9-9.8 3-7.3-.5-10.1-2c-3-1.5-4.4-2.7-4.6-3.4z" fill="#da7c87" stroke-width="none" opacity="1" transform="translate(0 3)"></path><path id="SvgjsPath11091" d="M86.4 128.4c4.6 2.6 9.9.3 14.8.5 4.4.1 10.4 1.9 14.4-.7.4-.2.1-.7-.3-.7-2.4.4-4.6.9-7 .8-2.4-.1-4.7-.5-7.1-.5-4.9-.1-9.8 1.8-14.6.1-.3-.2-.5.3-.2.5z" fill="#cb5f6c" stroke-width="none" opacity="1" transform="translate(0 3)"></path><path id="SvgjsPath11092" d="M92 130.8c4.7 1.9 11.1 2.3 15.6-.4.2-.1.1-.5-.1-.5-2.6.1-5.1.7-7.7.9-2.6.1-5.2-.1-7.7-.3-.2-.1-.2.2-.1.3z" fill="#e99ca5" stroke-width="none" opacity="1" transform="translate(0 3)"></path><path id="SvgjsPath11093" d="M98.1 126.3c2.1 0 4.1.5 6.2 1 .3.1.5-.3.2-.5-2-1-4.3-1.1-6.4-.8-.2 0-.2.2 0 .3z" fill="#e99ca5" stroke-width="none" opacity="1" transform="translate(0 3)"></path></g></g><g id="svga-group-eyes-left-move" transform="matrix(1,0,0,1,0,0)"><g id="svga-group-eyes-left"><g id="svga-group-eyesback-left"><path id="SvgjsPath8138" d="M90.9 101.3s-.3-2.5-1-3.8-3.7-4.4-7-5c-4.9-1-9.3 1.7-9.3 1.7s0 2.4 1.5 4.1c1.4 1.7 3.9 2.6 4.9 2.7s4.6.3 6.5 0c1.3-.2 2.8-.2 3.4 0 .5.2 1 .3 1 .3z" fill="#ffffff" stroke-width="none" opacity="1"></path></g><g id="svga-group-eyesiriswrapper-left" transform="matrix(1,0,0,1,0,0)"><g id="svga-group-eyesiriscontrol-left" transform="matrix(1,0,0,1,0,0)"><g id="svga-group-eyesiris-left"><path id="SvgjsPath8100" d="M82 91.5c2.7 0 4.9 2.2 4.9 4.9s-2.2 4.9-4.9 4.9-4.9-2.2-4.9-4.9 2.2-4.9 4.9-4.9z" fill="#673d06" stroke-width="none" opacity="1"></path><path id="SvgjsPath8101" d="M82 93.8c1.4 0 2.6 1.2 2.6 2.6S83.4 99 82 99s-2.6-1.2-2.6-2.6 1.2-2.6 2.6-2.6z" fill="#000000" stroke-width="none" opacity="1"></path><path id="SvgjsPath8102" d="m81.3 94.3-.5-.5c-.2-.2-.4-.3-.7-.3s-.5.1-.7.3c-.2.2-.3.4-.3.7s.1.5.3.7l.5.5c.2.2.4.3.7.3.2 0 .5-.1.7-.3.4-.5.4-1 0-1.4zm2.5 4.4c.8 0 .8-1.3 0-1.3s-.9 1.3 0 1.3z" fill="#ffffff" stroke-width="none" opacity="1"></path></g></g></g><g id="svga-group-eyesfront-left"><path id="SvgjsPath8146" d="M70.73 98.03c0 6.9 4.93 12.5 11.02 12.5s11.02-5.6 11.02-12.5-4.93-12.5-11.02-12.5-11.02 5.59-11.02 12.5zm2.88-3.78s4.42-2.71 9.34-1.75c3.29.64 6.2 3.74 6.95 5.03.75 1.28 1.03 3.82 1.03 3.82s-.53-.14-1.11-.32c-.57-.18-2.05-.19-3.39.04-1.89.32-5.46.18-6.45.04-1-.14-3.49-1.07-4.92-2.75-1.41-1.69-1.45-4.11-1.45-4.11z" fill="#f4baa3" stroke-width="none" opacity="1" stroke="none"></path><path id="SvgjsPath8147" d="M73.27 94.64c-.1.42-.12.84-.06 1.25-.57-.03-1.21.05-1.59.44-.14.14.01.33.18.3.3-.05.58-.2.88-.27.21-.05.42-.06.63-.05.06.21.13.42.22.63-.18.06-.35.14-.5.21-.38.17-.75.42-.99.76-.11.15.09.28.22.22.35-.16.68-.38 1.03-.55.15-.07.32-.12.49-.18.16.28.35.54.56.8-.41.24-.78.58-.9 1.03-.03.1.09.21.19.15.36-.24.65-.57.96-.88 1.11 1.22 2.67 2.16 3.92 2.57 1.88.62 3.93.72 5.89.62 1.85-.09 4.72-1.14 6.43-.21.07.04.13.02.17-.02l.03-.03c.01-.02.02-.04.02-.06 0-.01.01-.01.01-.03-.1-4.06-2.64-7.49-6.4-8.97-2.08-.82-4.37-1.02-6.58-.69-2.59.39-4.87 1.66-7.54 1.44-.23-.02-.34.3-.18.44.9.88 1.89 1.13 2.91 1.08zm.67-.07c1.99-.32 4.11-1.54 6.09-1.68 5.13-.36 10.05 3 10.7 8.24-2.39-.82-5.13-.1-7.59-.15-2.01-.04-4.14-.32-5.91-1.34-2.21-1.28-2.61-2.93-3.29-5.07z" fill="#000000" stroke-width="none" opacity="1" stroke="none"></path></g></g></g><g id="svga-group-eyes-right-move" transform="matrix(1,0,0,1,0,0)"><g id="svga-group-eyes-right"><g id="svga-group-eyesback-right"><path id="SvgjsPath8139" d="M109.1 101.3s.3-2.5 1-3.8 3.7-4.4 7-5c4.9-1 9.3 1.7 9.3 1.7s0 2.4-1.5 4.1c-1.4 1.7-3.9 2.6-4.9 2.7s-4.6.3-6.5 0c-1.3-.2-2.8-.2-3.4 0-.5.2-1 .3-1 .3z" fill="#ffffff" stroke-width="none" opacity="1"></path></g><g id="svga-group-eyesiriswrapper-right" transform="matrix(1,0,0,1,0,0)"><g id="svga-group-eyesiriscontrol-right" transform="matrix(1,0,0,1,0,0)"><g id="svga-group-eyesiris-right"><path id="SvgjsPath8103" d="M118 91.5c2.7 0 4.9 2.2 4.9 4.9s-2.2 4.9-4.9 4.9-4.9-2.2-4.9-4.9 2.2-4.9 4.9-4.9z" fill="#673d06" stroke-width="none" opacity="1"></path><path id="SvgjsPath8104" d="M118 93.8c1.4 0 2.6 1.2 2.6 2.6S119.4 99 118 99s-2.6-1.2-2.6-2.6 1.2-2.6 2.6-2.6z" fill="#000000" stroke-width="none" opacity="1"></path><path id="SvgjsPath8105" d="m117.4 94.3-.5-.5c-.2-.2-.4-.3-.7-.3s-.5.1-.7.3c-.2.2-.3.4-.3.7s.1.5.3.7l.5.5c.2.2.4.3.7.3.2 0 .5-.1.7-.3.3-.5.4-1 0-1.4zm2.4 4.4c.8 0 .8-1.3 0-1.3s-.8 1.3 0 1.3z" fill="#ffffff" stroke-width="none" opacity="1"></path></g></g></g><g id="svga-group-eyesfront-right"><path id="SvgjsPath8148" d="M118.26 85.53c-6.08 0-11.02 5.6-11.02 12.5s4.93 12.5 11.02 12.5 11.02-5.6 11.02-12.5-4.94-12.5-11.02-12.5zm6.67 12.82c-1.43 1.68-3.92 2.6-4.92 2.75-1 .14-4.56.29-6.45-.04-1.34-.23-2.82-.21-3.39-.04-.57.18-1.11.32-1.11.32s.29-2.53 1.03-3.82c.75-1.28 3.66-4.38 6.95-5.03 4.92-.96 9.34 1.75 9.34 1.75s-.03 2.43-1.45 4.11z" fill="#f4baa3" stroke-width="none" opacity="1" stroke="none"></path><path id="SvgjsPath8151" d="M129.64 93.58c.15-.15.04-.46-.18-.44-2.68.22-4.96-1.05-7.54-1.44-2.21-.33-4.49-.13-6.58.69-3.76 1.48-6.31 4.91-6.4 8.97 0 .01.01.02.01.03 0 .02.01.04.02.06l.03.03c.04.04.1.06.17.02 1.71-.93 4.58.11 6.43.21 1.96.1 4.02-.01 5.89-.62 1.25-.41 2.81-1.35 3.92-2.57.31.31.6.64.96.88.1.06.22-.04.19-.15-.12-.45-.5-.79-.9-1.03.21-.26.4-.52.56-.8.17.06.34.11.49.18.35.17.68.39 1.03.55.13.06.33-.07.22-.22-.25-.34-.61-.59-.99-.76-.15-.07-.32-.15-.5-.21.09-.21.17-.42.22-.63.21 0 .42.01.63.05.3.07.58.21.88.27.17.03.31-.16.18-.3-.38-.39-1.02-.48-1.59-.44.06-.41.04-.83-.06-1.25 1.02.03 2.01-.22 2.91-1.08zm-6.87 6.06c-1.77 1.03-3.9 1.3-5.91 1.34-2.46.05-5.21-.67-7.59.15.65-5.24 5.56-8.6 10.7-8.24 1.98.14 4.1 1.36 6.09 1.68-.68 2.14-1.08 3.79-3.29 5.07z" fill="#000000" stroke-width="none" opacity="1" stroke="none"></path></g></g></g><g id="svga-group-facehighlight-single"></g><g id="svga-group-eyebrows-left-move" transform="matrix(1,0,0,1,0,0)"><g id="svga-group-eyebrows-left-rotate" transform="matrix(1,1.7453292519943295e-9,-1.7453292519943295e-9,1,1.4966197170451778e-7,-1.397919930923308e-7)"><g id="svga-group-eyebrows-left"><path id="SvgjsPath8192" d="M72.9 84.2c.1-.2.4-.3.6-.4.2-.1.4-.2.6-.2.4-.2.8-.4 1.2-.5.5-.1 1.2-.5 1.7-.2 1.6-.6 3.7-.2 5.1.6 1.9.2 3.9.8 5.3 1.8.1.1.2.2.2.3.3.1.5.2.8.3 1 .4 2.1.7 3.1 1.2.1 0 .2.1.3.1.3.1.4.7.2.8-.1.1-.1.2-.2.3-.8.6-1.8.2-2.6-.1-.7-.3-1.5-.6-2-1.2-.8-.3-1.4-.7-2.1-1.1-.1 0-.2-.1-.3-.1-1.2-.2-2.5-.7-3.7-1.3-.7-.1-1.3-.3-2-.3-.9-.1-1.8.2-2.8-.1h-.1c-.2.1-.4.1-.6.2-.8.2-1.5.4-2.3.4-.1 0-.2-.1-.2-.2H73s-.2-.1-.1-.3z" fill="#2a232b" stroke-width="none" opacity="1"></path><path id="SvgjsPath8193" d="M77.4 82.3c3.1-.2 6.2 1.5 9 2.6 1.7.7 5.2.9 5.9 3 .1.3-.3.4-.5.2-.9-1.2-2.4-1.4-3.8-1.8-1.2-.4-2.3-.8-3.5-1.3-2.4-1-4.8-1.6-7.3-2.2-.1-.1 0-.4.2-.5z" fill="#3a353a" stroke-width="none" opacity="1"></path><path id="SvgjsPath8194" d="M93.3 87.9c.3-1.4-1.8-1.9-2.8-2.3-2.4-1-4.9-2.1-7.4-2.8-1.5-.4-3.1-.7-4.6-.7-1.2 0-2.3.1-3.5.5-2 .6-3.9 1.8-5.6 3.1-.9.5-1.8 1.2-2.5 1.9-.1.1 0 .3.2.2 0 0 .1 0 .1-.1 0 .1.1.1.2.1 1.5-.7 2.8-1.6 4.3-2.2 1.5-.6 3.1-1 4.7-1.1h.7c1.9 0 3.7.4 5.4 1.2 2.4 1.1 4.6 2.6 7 3.5.4.2.9.2 1.4.2 1.1 0 2.2-.4 2.4-1.5zM78.5 83c1.6 0 3.2.4 4.8.9 2 .7 4 1.6 6 2.4.4.2 2.4.7 2.6 1.2.2.6-.2.8-.8.9-.3 0-.6-.1-.8-.1-.6-.2-1.2-.6-1.7-.9-3.1-1.6-6.3-3.5-9.8-3.7h-1c-1.1 0-2.3.1-3.5.3.5-.2 1-.4 1.6-.6.8-.3 1.7-.4 2.6-.4z" fill="#1b141c" stroke-width="none" opacity="1"></path></g></g></g><g id="svga-group-eyebrows-right-move" transform="matrix(1,0,0,1,0,0)"><g id="svga-group-eyebrows-right-rotate" transform="matrix(1,1.7453292519943295e-9,-1.7453292519943295e-9,1,1.4950030902127764e-7,-2.0892582597298315e-7)"><g id="svga-group-eyebrows-right"><path id="SvgjsPath8195" d="M127.1 84.2c-.1-.2-.4-.3-.6-.4-.2-.1-.4-.2-.6-.2-.4-.2-.8-.4-1.2-.5-.5-.1-1.2-.5-1.7-.2-1.6-.6-3.7-.2-5.1.6-1.9.2-3.9.8-5.3 1.8-.1.1-.2.2-.2.3-.3.1-.5.2-.8.3-1 .4-2.1.7-3.1 1.2-.1 0-.2.1-.3.1-.3.1-.4.7-.2.8.1.1.1.2.2.3.8.6 1.8.2 2.6-.1.7-.3 1.5-.6 2-1.2.8-.3 1.4-.7 2.1-1.1.1 0 .2-.1.3-.1 1.2-.2 2.5-.7 3.7-1.3.7-.1 1.3-.3 2-.3.9-.1 1.8.2 2.8-.1h.1c.2.1.4.1.6.2.8.2 1.5.4 2.3.4.1 0 .2-.1.2-.2h.1s.2-.1.1-.3z" fill="#2a232b" stroke-width="none" opacity="1"></path><path id="SvgjsPath8196" d="M122.6 82.3c-3.1-.2-6.2 1.5-9 2.6-1.7.7-5.2.9-5.9 3-.1.3.3.4.5.2.9-1.2 2.4-1.4 3.8-1.8 1.2-.4 2.3-.8 3.5-1.3 2.4-1 4.8-1.6 7.3-2.2.1-.1 0-.4-.2-.5z" fill="#3a353a" stroke-width="none" opacity="1"></path><path id="SvgjsPath8197" d="M109 89.3c.5 0 1-.1 1.4-.2 2.4-.9 4.7-2.4 7-3.5 1.8-.8 3.6-1.2 5.4-1.2h.7c1.6.1 3.2.5 4.6 1.1 1.5.6 2.9 1.6 4.3 2.2.1 0 .2 0 .2-.1 0 0 .1 0 .1.1.2.1.3-.1.2-.2-.7-.7-1.6-1.4-2.5-1.9-1.7-1.3-3.6-2.4-5.6-3.1-1.1-.4-2.3-.5-3.5-.5-1.6 0-3.1.3-4.6.7-2.5.7-5 1.8-7.4 2.8-.9.4-3.1.9-2.8 2.3.4 1.2 1.5 1.6 2.5 1.5zm15.2-5.9c.5.2 1.1.3 1.6.6-1.2-.2-2.3-.3-3.5-.3h-1c-3.5.2-6.8 2.2-9.8 3.7-.6.3-1.1.7-1.7.9-.2.1-.5.1-.8.1-.5 0-1-.2-.8-.9.2-.5 2.2-1 2.6-1.2 2-.8 4-1.7 6-2.4 1.6-.5 3.2-.9 4.8-.9.8 0 1.7.1 2.6.4z" fill="#1b141c" stroke-width="none" opacity="1"></path></g></g></g><g id="svga-group-nose-single-move" transform="matrix(1,0,0,1,0,0)"><g id="svga-group-nose-single"><path id="SvgjsPath9802" d="M104.93 107.57c-.14-.18-.45.05-.32.25.84 1.29 1.76 2.56 2.54 3.89.53.9 1.07 2.03.7 3.12-.61 1.79-2.18 1.68-3.45 1 .48-.61.75-1.33.69-2.12-.02-.19-.29-.37-.44-.18-1.26 1.59-2.06 3.25-4.41 3.34-2.48.1-4.08-1.91-4.73-4.07-.06-.19-.32-.14-.33.04-.07.99.25 1.95.79 2.76-.36.07-.73.14-1.09.16-1.15.07-1.34-.02-2.11-.98-.8-1.01-.81-1.27-.36-2.39.21-.53.52-.98.82-1.45.97-1.52 1.84-3.06 2.48-4.75 1.29-3.37 1.85-7.09 1.22-10.66-.03-.15-.26-.11-.27.04-.01 2.89-.19 5.74-1.04 8.52-.88 2.88-2.54 5.04-3.92 7.64-.72 1.35-1.02 3.12.21 4.28 1.22 1.15 3.1.78 4.52.24.85.92 2.02 1.56 3.26 1.67 1.4.12 3.23-.55 4.36-1.7 1.31 1.45 3.82.78 4.47-1.08 1.01-2.82-2.06-5.64-3.59-7.57z" fill="#c66c49" stroke-width="none" opacity="1" transform="translate(0 2)" stroke="none"></path><path id="SvgjsPath9803" d="M102 110.13c-.8-.75-2.07-.97-2.97-.27-.33.25-.52.57-.61.9-.16.05-.3.14-.44.27-.68.67-.39 1.71.19 2.34.5.53 1.31.78 2.02.75.88-.05 1.67-.46 2.16-1.2.57-.86.4-2.09-.35-2.79z" fill="#fcc9b5" stroke-width="none" opacity="1" transform="translate(0 2)" stroke="none"></path></g></g><g id="svga-group-hair-front"><path id="SvgjsPath9045" d="M160 89.7c-4.1-18.8-35.3-51.9-48.6-51.9-10.9 0-26.6 2.6-28.9 13.2-1.4-.3-3.6-.4-6.3 1.3-4.9 2.9-15.5 12.8-15.4 22.5.1 9.7 9.1 12.4 9.1 12.4-1.2-10.7-1.6-14.3 1.4-20.3s11.8-7.8 11.8-7.8c.3 1.1 8-9.7 18.2-10.5 10.5-.8 13.7 5.3 12.5 13s1.2 12.1 6.2 14.5c5 2.3 7.7-1.8 11.8 1.8 4.1 3.5 7.9 10.3 4.4 23.2-3.5 12.9-4.4 21.5 1.5 24.1s26.4-16.6 22.3-35.5z" fill="#1b141c" stroke-width="none" opacity="1" stroke="none"></path><path id="SvgjsPath9046" d="M180.6 133.3c-3.8-2.6-6.1-2.9-3.5-13 .2-1 .4-1.8.5-2.7 1.5-1.8 2.7-3.7 2.6-5.8-.2-5.3-13.1-7.7-14.3-10.8-1.2-3.1-3.1-6.7 1.9-18.6s1.9-23.2-11.5-25.6-6.9-6.7-10.5-13.9c-3.6-7.2-15.8-16.5-27.2-13.9-11.5 2.6-10-6.7-23.9-4.8s-8.6 6.9-14.6 9.8-7.9 2.2-9.6 5.3c-1.7 3.1-1.7 5.5-.5 8.4 0 0-4.5-5-14.3-1.9S30.6 58.1 37.3 69.3s5.5 11.5-5.7 20.8-6 16.7 2.6 23.2 6.9 9.8-1.7 15.3-11.7 18.6 1 26.3 13.1 12.9 12 18.9c-1.2 6 2.4 16.5 23.4 16.5 0 0-9.3-3.6-5.7-11.7s7.4-10.5 0-19.6-10.8-16.2-6.5-23.2 13.6-7.6 6.2-16.5-8.6-12.7-.7-18.9c7.9-6.2 11.5-8.8 5.7-18.6C62.2 72 70.5 58.3 83 59.3c0 0 2.2-7.4 11.5-12.2s24.6-4.1 24.4 4.8c-.2 8.8-6 16.5-.7 24.4 5.3 7.9 13.1 2.2 22.5 1.9 9.3-.2 14.8 11 3.6 23.9s-11.7 18.2-8.4 23.7 11.7.5 14.8 5.3c3.1 4.8-11.9 6.9-12.9 13.1s.7 8.8 7.2 11c6.4 2.1 8.4 11 .5 13.9-7.7 2.8-6.9 13.7-1 18.8l.3.3s-1.8-4.1.3-7.3c2-3.2 12.7-1.7 22.2-1.4 9.5.3 7.8-5.8 4.3-17s4.6-12.7 7.2-15.6c2.4-3 5.6-11 1.8-13.6z" fill="#2a232b" stroke-width="none" opacity="1" stroke="none"></path><path id="SvgjsPath9047" d="M73.9 53.6s-15.1-4.2-20.8 8.3 4.9 17 6.4 23.8C61 92.5 44.8 96.2 41 102.3c-3.8 6-2.3 12.8 9.4 19.3s-3 12.8-6 16.6 3 7.9 6.8 13.2c3.8 5.3 3 12.1 1.1 16.2s-1.9 7.2 1.5 9.8c0 0-3.4-2.6 1.5-10.9s-6.4-19.6-7.5-24.5c-1.1-4.9 9.8-10.9 11-14.7s-8.3-5.7-14.4-11.7c-6-6-3-12.8.8-14.7S63 93 64.1 89.6c1.1-3.4-9.8-12.1-9.8-18.5s.3-17.9 19.6-17.5zm3-3.1s1.9-7.5 9.4-11.7c7.6-4.2 29.8-6 37 0 7.2 6-3.4 19.6-.8 27.9s12.8 3.8 21.5 3c8.7-.8 17.4 3.8 15.5 14.7s-23 24.2-18.1 32.5c4.9 8.3 20.8-1.5 21.9 6.4 1.1 7.9-21.8 12.7-16.8 23.7s15.7 3.9 13.4 12.2-6 9.1-10.2 11.7c-4.1 2.6-3.8 5.7-3.8 5.7s.8-4.9 8.7-6.4 12.1-11.3 9.8-17.8-.5-11.1 3.6-19 8-15.5 3.5-17.7-16.9-.6-16.5-7.4c.4-6.8 7.9-21.5 8.3-29.1.4-7.6-.4-9.1-10.9-12.8-10.6-3.8-15.5-3-15.1-14 .4-11-7.9-17-14.3-18.9s-20.8-1.9-33.6 1.5c-12.9 3.5-12.5 15.5-12.5 15.5zm-7.7-.4s-10.4-.3-17 3.6-7.3 15.4.2 24.8-6.2 13-11 15.2-9.9 10.5-6.5 14.9c3.4 4.4 11.2 11.5 14.1 14.6 2.9 3.1-2.4 7.8-7.6 11.5s-6.7 7.8-3.9 11.2c2.8 3.4 11.5 7.6 12.6 12.6s-.3 8.6-.3 8.6 1-8.3-2.9-11c-3.9-2.8-15.6-4.5-16.5-13.6s11.4-11 13.4-15.1-2.3-10.4-4.7-12.2c-2.4-1.8-10.2-7.9-10.5-13.3-.3-5.3 4-10.5 9.7-13.1C44 86.2 48.2 85.7 49 82c.8-3.7-6.5-9.4-7.5-14.1-1-4.7-.8-11.5 6.3-15.4s12.7-3.7 21.4-2.4z" fill="#1b141c" stroke-width="none" opacity="1" stroke="none"></path><path id="SvgjsPath9048" d="M81.6 54.5s3.5-11.1 12.7-15.2 23.1-3.8 27.6 1 .4 13-1.5 17.6-4.7 11.8-1.1 15.2c3.6 3.5 10.4 2.6 14.9.8s16.7-4.1 21.4 2-.9 16.6-6.2 22.5c-5.3 5.9-10.7 11.8-10.1 16.9.6 5.1 5.7 6.5 15.5 6.9 9.8.4 3.6 6.9-7.4 15.8s2 16 2 16-7.1-1.7-7.7-7.2 3-8.6 7.1-11.4 10.7-8.6 9.3-10.4c-1.4-1.8-14.8 2.3-18.7-.4s-4.5-5.9-2.1-12.8 11.9-13.9 14.2-18.4 6.3-12.8 2.7-16.4-16.7-1.1-24.4 1.2-13.1-2.7-13.1-6.6-.9-3.9 3.6-15.8-1.7-15.7-5.9-16.6-21.7-3.5-32.8 15.3zm-5 3.9s-11.3 2.1-13 9.3 2.7 15.5 4.5 19.6c1.8 4.1-6 8.9-10.5 13s-6.9 7.8-3.9 12.5 10.2 10.1 9.5 13c-.8 2.9-3.8 4.5-3.8 4.5s4.4-4.8.6-7.7c-3.8-2.9-13.9-6.6-13.3-13.9.6-7.2 7.1-8.6 11.9-12.1s8.1-3.6 8.1-8.3-6-9-8-15.8c-1.8-6.7.7-11.8 17.9-14.1zm55.6-22.7s5.6 1 8 8.8.2 10.7 3.4 14.1 14.2 3 18 6.3c3.7 3.2 5.3 12.9 1.7 23.6 0 0 5.6-8.8 4.6-16.8s-6.3-8.5-17.6-12.4-5.3-10.2-8.5-16.8-9.6-6.8-9.6-6.8zm41 82.2c-1.9-3.3-6.1-3.6-9.5-3.6-4.7 0-9.5.4-11.3-5.3-1.5-4.7 1.4-9.2 3.3-13.3 3.5-7.4 9.7-19.5.3-25-4-2.3-8.6-2.3-13-1.7-3.7.6-7.8 2.1-11.6 1.7-7.6-.7-6.7-7.9-4.9-13.1.1-.2-.2-.3-.3-.1-1.5 3.4-3.1 7.7-.8 11.2 2.3 3.4 6.9 3.1 10.4 2.6 7-.9 16.4-3.9 22 2.4 5.9 6.7-1.9 19.2-4.8 25.7-1.6 3.7-3 8-.9 11.8 2 3.8 6.3 4 10.1 4.2 5 .1 11.9 1.2 9.9 8.6-.9 3.3-3.1 6.4-5 9.1-3.3 4.9-6.8 9.9-6 16.1 0 .4.6.4.6 0 .2-8.4 5.7-13.6 9.7-20.3 1.8-3.1 3.9-7.5 1.8-11zm-45.7-83.4c-5.6-3.4-10.6-2.4-16.8-2.5-6.1 0-10-6.2-16.1-5-2 .4-3.6 1.4-5.1 2.8-1.2 1.1-1.8 2.8-2.9 4-1.8 1.7-3.9 2.2-6 3.2-3.2 1.5-6.3 3.9-5.2 7.8.1.3.6.2.5-.1-.4-2.4 1.7-5.2 3.7-6.4 1.2-.7 2.6-1 3.9-1.6 1.4-.6 2.7-1.2 3.8-2.2 1.6-1.4 2.4-3.4 4.2-4.7 3.8-2.8 7.4-1.6 11.2.6 3.1 1.8 5.4 2.8 9 2.7 5.7-.2 10.4-.2 15.7 2 .1 0 .3-.5.1-.6zM63.9 53.2c-7.4 1.3-15 5.7-16.2 13.8-.5 3.2.4 6.2 2.1 8.9 3 4.7 11.1 8.9 7.2 15.4-4.5 7.3-17.1 5.7-20 14.6-2.5 7.3 4.5 13.1 9.9 16.5.2.1.4-.2.2-.3-3.6-2.9-7.9-5.8-9.2-10.5-1.9-6.7 3.5-10.4 8.8-12.5 4.9-1.9 10.6-3.6 12.5-9.1 2-5.7-3.1-8.7-6.4-12.4-4.1-4.5-5.7-10.1-2.3-15.6 3-4.9 8.3-7 13.5-8.5.1-.1.1-.3-.1-.3zm-8-4.3c-6.3 2.2-12.8 5.6-15.1 12.3-1 3-1 6 .3 8.9 2.1 4.8 6.8 8.2 5.3 14.2 0 .2.2.2.3.1 2.1-5.3-1.8-8.9-4.2-13.3-5.8-10.6 5-18.3 13.5-21.8.3-.1.2-.5-.1-.4zM174 111.4c-1.3-2-3.3-3.3-5.4-4.4-3-1.5-6.8-3.1-6.7-7.2 0-.3-.4-.4-.5-.1-.4 2.4.8 4.3 2.6 5.8 1.5 1.1 3.2 1.7 4.8 2.6 1.8 1 3.1 2.3 4.6 3.6.4.4.8.1.6-.3zm-3.6 36.2c-2.9.6-4.5 2.9-5.1 5.7-1.3 6.1 2.9 12.1-2.6 17.3-5.3 5-20.8 1.5-20.5 12.1 0 .2.3.2.3 0 .5-10.5 16.6-5.6 22.1-12.2 1.7-2.1 2.5-4.6 2.5-7.2.1-4.9-3.2-12.4 3.5-14.8.4-.3.3-1-.2-.9zM62.8 161.9c-.9-3-2.6-5.7-4.6-8.2-3.6-4.4-10.4-9.6-6-16 .2-.2-.2-.6-.4-.3-6.3 7 3.1 13.9 6.8 19.2 1.8 2.6 3.7 6 3.5 9.2-.2 3.9-3.1 6.1-4.5 9.4-1.3 3.2-1.2 6.4.3 9.4.1.3.6.1.5-.2-1-3.6-1-6.7.9-10.1 1-1.8 2.5-3.4 3.3-5.3 1-2.3 1-4.6.2-7.1zM55 183.1c-4.9-4.2-6.2-9.2-5-15.5.6-3.3 1.7-6.6 1-9.9-.4-2.1-1.4-3.8-2.9-5.3-3.3-3.2-12-5.7-8.5-12.5.1-.2-.2-.4-.4-.2-1.7 2.6-1.3 5.2.6 7.6 3.7 4.7 10 5.3 10.2 12.6.1 5.1-2.5 10-1.4 15.2.8 3.6 2.8 6.5 5.9 8.5.4.2.7-.2.5-.5z" fill="#3a353a" stroke-width="none" opacity="1" stroke="none"></path></g><g id="svga-group-glasses-single-move" transform="matrix(1,0,0,1,0,0)"><g id="svga-group-glasses-single"><path id="SvgjsPath9284" d="M74.1 86.5c-3-.2-6.7.1-7.5 3.4-.8 3.3 1 10.1 3.7 13.7s6.6 5.7 9.1 6.5 6.9 1.1 9.4-.3c2.6-1.4 5-3.8 6.1-7.7 1.1-3.9.6-7.4.1-8.2-.5-.8-3.4-3.6-9.4-5.7s-11.5-1.7-11.5-1.7z" fill="url(#SvgjsLinearGradient9285)" opacity="1"></path><path id="SvgjsPath9290" d="M125.9 86.5c3-.2 6.7.1 7.5 3.4.8 3.3-1 10.1-3.7 13.7s-6.6 5.7-9.1 6.5-6.9 1.1-9.4-.3-5-3.8-6.1-7.7c-1.1-3.9-.6-7.4-.1-8.2.5-.8 3.4-3.6 9.4-5.7s11.5-1.7 11.5-1.7z" fill="url(#SvgjsLinearGradient9291)" opacity="1"></path><path id="SvgjsPath9296" d="M132.7 85.3c-4.6-.8-9.9-.5-14.2.8-5 1.4-9.2 3.5-11.9 5.4-1.4.9-2 2.2-2.3 3.5l-.6-.2c-2.3-.8-4.9-.8-7.3-.1l-.8.3c-.3-1.3-1-2.6-2.3-3.5-2.7-1.8-6.8-3.9-11.9-5.4-4.3-1.2-9.6-1.6-14.2-.8s-2.6 6.5-1.2 11.1c1.4 4.6 4.5 10.2 10.3 12.8 6.2 2.8 9.7 2.5 13.5.5 4-2.1 5.6-7.5 5.9-10.3.1-1.2.2-2.4.1-3.6l.9-.3c2.2-.7 4.5-.7 6.7.1l.7.2c-.1 1.2 0 2.4.1 3.6.3 2.8 1.9 8.3 5.9 10.3 3.7 1.9 7.3 2.3 13.5-.5 5.9-2.7 8.9-8.2 10.3-12.8 1.5-4.6 3.5-10.3-1.2-11.1zm-38.2 17c-.8 2.8-3.3 6.2-6.3 7.4-3 1.2-6.6.6-8.7 0-2.1-.6-8.2-3.2-10.6-10-2.3-6.8-1.3-9.8-.8-10.6.4-.8 3.2-2.9 15.2-.3S95 95.6 95 95.6c.1 1.5.2 3.9-.5 6.7zm36.5-2.6c-2.3 6.8-8.5 9.4-10.6 10s-5.7 1.2-8.7 0-5.5-4.6-6.3-7.4c-.8-2.8-.7-5.2-.5-6.6 0 0-.4-4.2 11.7-6.8 12-2.6 14.8-.5 15.2.3.5.7 1.5 3.6-.8 10.5z" fill="#26120b" stroke-width="none" opacity="1"></path><path id="SvgjsPath9297" d="M132.7 85.3c-2.6-.5-5.3-.5-7.9-.3-2.6.2-5.2.8-7.7 1.6s-4.9 1.9-7.2 3.1c-1.2.6-2.3 1.3-3.3 2.1s-1.7 1.9-1.9 3.2l-.1.3-.3-.1c-.7-.2-1.4-.5-2.1-.6-.7-.1-1.4-.2-2.1-.2-.7 0-1.4.1-2.1.2s-1.4.4-2.1.6l-.3.1-.2-.3c-.2-.9-.6-1.7-1.2-2.4s-1.4-1.2-2.2-1.7c-1.6-1-3.3-1.8-5-2.6-3.5-1.5-7.1-2.7-10.9-3.1-1.9-.2-3.8-.3-5.7-.2-.9.1-1.9.2-2.8.3-.9.2-1.8.5-2.4 1.2-.6.7-.7 1.7-.7 2.6 0 .9.2 1.9.4 2.8.5 1.8 1.1 3.7 1.7 5.4 1.3 3.6 3.3 6.9 6.2 9.3 1.5 1.2 3.1 2.1 4.9 2.8 1.8.7 3.6 1.2 5.4 1.4 1.9.2 3.7-.2 5.4-.9.9-.4 1.7-.8 2.4-1.4.7-.6 1.3-1.3 1.8-2.1 1.1-1.5 1.8-3.3 2.2-5.1.2-.9.3-1.8.4-2.8.1-.9.1-1.9 0-2.8v-.3l.3-.1c.7-.2 1.3-.5 2.1-.6.7-.2 1.5-.2 2.2-.2.7 0 1.5.1 2.2.2.7.1 1.4.4 2.1.6l.3.1v.3c-.1 1.2 0 2.4.1 3.7.1 1.2.4 2.4.8 3.5.8 2.3 2.1 4.5 4.1 5.9 2 1.3 4.4 2.1 6.8 2 2.4-.1 4.8-.9 7.1-1.9 4.6-1.9 7.8-6.1 9.7-10.7.5-1.1.9-2.3 1.2-3.5.4-1.2.7-2.4 1-3.6.2-1.2.4-2.5.1-3.7-.3-1.1-1.5-1.9-2.7-2.1zm.1-.1c1.2.2 2.4 1 2.7 2.3.3 1.2.2 2.5 0 3.7-.2 1.2-.6 2.4-.9 3.6-.4 1.2-.7 2.4-1.2 3.6-.9 2.3-2.1 4.6-3.8 6.5-1.6 1.9-3.7 3.5-5.9 4.6-2.3 1-4.7 1.9-7.2 2.1-2.6.2-5.1-.7-7.3-2-2.2-1.5-3.5-3.8-4.3-6.2-.4-1.2-.7-2.4-.9-3.7-.1-1.2-.2-2.5-.1-3.8l.2.4c-.7-.2-1.3-.5-2-.6s-1.4-.2-2-.2c-.7 0-1.4.1-2.1.2-.7.1-1.3.4-2 .6l.2-.4c.2 3.9-.6 7.9-2.8 11.1-.6.8-1.2 1.5-2 2.2s-1.7 1.1-2.6 1.4c-1.8.8-3.8 1.1-5.7.9-1.9-.2-3.8-.8-5.6-1.5-1.8-.7-3.5-1.7-5-2.9-3-2.5-5-5.9-6.3-9.5-.6-1.8-1.2-3.6-1.6-5.5-.2-.9-.4-1.9-.4-2.8 0-.9.1-2 .7-2.8.6-.8 1.6-1.2 2.6-1.3.9-.2 1.9-.3 2.8-.3 1.9-.1 3.8-.1 5.7.1 3.8.4 7.5 1.5 11.1 3 1.8.7 3.5 1.6 5.1 2.6.8.5 1.7 1 2.3 1.8.7.8 1.1 1.7 1.3 2.7l-.4-.2c.7-.2 1.4-.5 2.2-.6.7-.1 1.5-.2 2.2-.2.8 0 1.5.1 2.2.2s1.5.4 2.2.6l-.4.2c.3-1.3 1.1-2.6 2.2-3.4 1.1-.8 2.3-1.4 3.4-2.1 2.4-1.2 4.8-2.2 7.4-3 2.5-.8 5.2-1.3 7.8-1.5 2.9-.4 5.5-.4 8.2.1zm-38.3 17.1c-.4 1.5-1.2 2.9-2.1 4.1-.9 1.2-2.1 2.4-3.5 3.1-1.4.8-3 1.1-4.6 1.1-1.6 0-3.2-.2-4.7-.6-1.5-.4-2.9-1.2-4.3-2.1-1.3-.9-2.5-1.9-3.5-3.1-1-1.2-1.9-2.5-2.5-4-.6-1.4-1-2.9-1.4-4.5-.4-1.5-.6-3.1-.6-4.7 0-.8.1-1.6.4-2.4.1-.4.4-.8.8-1.1.3-.2.7-.4 1.1-.6 1.5-.5 3.2-.6 4.7-.6 1.6 0 3.1.2 4.7.4 3.1.5 6.2 1.1 9.1 2.2 1.5.5 2.9 1.2 4.2 2.1.6.5 1.3 1 1.8 1.6.5.6 1 1.3 1 2.2.2 2.5 0 4.8-.6 6.9zm-.1 0c.6-2.2.7-4.4.4-6.6-.1-.7-.5-1.4-1-1.9-.5-.6-1.1-1-1.8-1.4-1.3-.8-2.7-1.4-4.2-1.9-2.9-1-6-1.6-9-2.1-1.5-.2-3.1-.4-4.6-.5-1.5 0-3.1 0-4.5.4-.7.2-1.4.6-1.6 1.2-.3.7-.4 1.4-.4 2.2-.1 1.5.1 3.1.4 4.6.3 1.5.8 3 1.3 4.4.6 1.4 1.5 2.7 2.5 3.9 2.1 2.3 4.8 3.9 7.7 4.8 2.9.7 6.2 1.1 8.9-.2 2.9-1.3 5-3.9 5.9-6.9zm36.7-2.6c-1.1 3.2-3.2 6.1-6 8.1-1.4 1-2.9 1.8-4.6 2.3-1.7.5-3.4.7-5.1.7-1.7-.1-3.5-.5-4.9-1.5-1.4-1-2.6-2.3-3.5-3.7s-1.5-3.1-1.8-4.8-.4-3.4-.2-5.1c0-1 .6-1.7 1.2-2.4.6-.6 1.3-1.2 2-1.6 1.5-.9 3.1-1.6 4.7-2.1 3.3-1 6.6-1.7 10-2.1 1.7-.2 3.4-.3 5.2-.2.9.1 1.7.2 2.6.5.4.1.8.3 1.2.6.2.1.4.3.5.6.1.2.2.4.2.6.5 1.7.3 3.5 0 5.1-.5 1.7-1 3.4-1.5 5zm-.1 0c.5-1.6 1-3.3 1.2-4.9.2-1.7.3-3.4-.3-5-.1-.2-.1-.4-.2-.5-.1-.1-.2-.3-.4-.4-.3-.2-.7-.4-1.1-.5-.8-.2-1.6-.3-2.4-.4-1.7-.1-3.3 0-5 .2-1.7.2-3.3.5-5 .8-1.7.3-3.3.7-4.9 1.2-1.6.5-3.2 1.1-4.6 1.9-.7.4-1.4.9-2 1.5-.6.6-1.1 1.3-1.1 2-.2 1.7-.2 3.4.1 5 .1.8.3 1.7.6 2.4s.7 1.5 1.2 2.2c.9 1.4 2.1 2.6 3.5 3.5 1.4.9 3.1 1.2 4.7 1.2 1.7 0 3.3-.2 4.9-.7 1.6-.4 3.1-1.2 4.5-2.1 1.4-.9 2.7-2 3.8-3.3 1.1-1 1.9-2.6 2.5-4.1z" fill="#070201" stroke-width="none" opacity="1"></path></g></g></g></g></g><rect id="svga-credit-rect" width="200" height="15" x="0" y="185" fill="#ecf0f1" opacity="0.5" style="display: none;"></rect><text id="svga-credit-text" font-family="Avenir Next, Roboto, Helvetica, Arial, sans-serif" font-size="10px" text-anchor="start" font-weight="400" size="10px" anchor="start" weight="400" fill="#333333" x="33.40447998046875" y="182.60824704170227" style="display: none;"><tspan id="SvgjsTspan8014" dy="13" x="33.40447998046875">Created on AvatarMaker.com</tspan></text></g><defs id="SvgjsDefs7966"><linearGradient id="SvgjsLinearGradient8221" x1="80.965" y1="115.5409" x2="80.965" y2="91.2475" gradientTransform="matrix(1 0 0 -1 0 202)" gradientUnits="userSpaceOnUse" class="svga-on-canvas-glasses-gradient-single-0-null"><stop id="SvgjsStop8222" stop-opacity="1" stop-color="#899ba1" offset="0" ></stop><stop id="SvgjsStop8223" stop-opacity="0.6554" stop-color="#7490b3" offset="0.3446" ></stop><stop id="SvgjsStop8224" stop-opacity="0.2966" stop-color="#6589c0" offset="0.7034" ></stop><stop id="SvgjsStop8225" stop-opacity="0" stop-color="#6086c4" offset="1" ></stop></linearGradient><linearGradient id="SvgjsLinearGradient8227" x1="-1737.0349" y1="115.5409" x2="-1737.0349" y2="91.2475" gradientTransform="matrix(-1 0 0 -1 -1618 202)" gradientUnits="userSpaceOnUse" class="svga-on-canvas-glasses-gradient-single-1-null"><stop id="SvgjsStop8228" stop-opacity="1" stop-color="#899ba1" offset="0" ></stop><stop id="SvgjsStop8229" stop-opacity="0.6554" stop-color="#7490b3" offset="0.3446" ></stop><stop id="SvgjsStop8230" stop-opacity="0.2966" stop-color="#6589c0" offset="0.7034" ></stop><stop id="SvgjsStop8231" stop-opacity="0" stop-color="#6086c4" offset="1" ></stop></linearGradient><linearGradient id="SvgjsLinearGradient9155" x1="80.965" y1="115.5409" x2="80.965" y2="91.2475" gradientTransform="matrix(1 0 0 -1 0 202)" gradientUnits="userSpaceOnUse" class="svga-on-canvas-glasses-gradient-single-0-null"><stop id="SvgjsStop9156" stop-opacity="1" stop-color="#899ba1" offset="0" ></stop><stop id="SvgjsStop9157" stop-opacity="0.6554" stop-color="#7490b3" offset="0.3446" ></stop><stop id="SvgjsStop9158" stop-opacity="0.2966" stop-color="#6589c0" offset="0.7034" ></stop><stop id="SvgjsStop9159" stop-opacity="0" stop-color="#6086c4" offset="1" ></stop></linearGradient><linearGradient id="SvgjsLinearGradient9161" x1="-1737.0349" y1="115.5409" x2="-1737.0349" y2="91.2475" gradientTransform="matrix(-1 0 0 -1 -1618 202)" gradientUnits="userSpaceOnUse" class="svga-on-canvas-glasses-gradient-single-1-null"><stop id="SvgjsStop9162" stop-opacity="1" stop-color="#899ba1" offset="0" ></stop><stop id="SvgjsStop9163" stop-opacity="0.6554" stop-color="#7490b3" offset="0.3446" ></stop><stop id="SvgjsStop9164" stop-opacity="0.2966" stop-color="#6589c0" offset="0.7034" ></stop><stop id="SvgjsStop9165" stop-opacity="0" stop-color="#6086c4" offset="1" ></stop></linearGradient><linearGradient id="SvgjsLinearGradient9219" x1="81.0729" y1="112.2763" x2="81.0729" y2="92.4328" gradientTransform="matrix(1 0 0 -1 0 202)" gradientUnits="userSpaceOnUse" class="svga-on-canvas-glasses-gradient-single-0-null"><stop id="SvgjsStop9220" stop-opacity="1" stop-color="#97a1ad" offset="0" ></stop><stop id="SvgjsStop9221" stop-opacity="0.6667" stop-color="#889ab3" offset="0.3333" ></stop><stop id="SvgjsStop9222" stop-opacity="3.130000e-02" stop-color="#6287c3" offset="0.9687" ></stop><stop id="SvgjsStop9223" stop-opacity="0" stop-color="#6086c4" offset="1" ></stop></linearGradient><linearGradient id="SvgjsLinearGradient9225" x1="-1736.927" y1="112.2763" x2="-1736.927" y2="92.4328" gradientTransform="matrix(-1 0 0 -1 -1618 202)" gradientUnits="userSpaceOnUse" class="svga-on-canvas-glasses-gradient-single-1-null"><stop id="SvgjsStop9226" stop-opacity="1" stop-color="#97a1ad" offset="0" ></stop><stop id="SvgjsStop9227" stop-opacity="0.6667" stop-color="#889ab3" offset="0.3333" ></stop><stop id="SvgjsStop9228" stop-opacity="3.130000e-02" stop-color="#6287c3" offset="0.9687" ></stop><stop id="SvgjsStop9229" stop-opacity="0" stop-color="#6086c4" offset="1" ></stop></linearGradient><linearGradient id="SvgjsLinearGradient9285" x1="80.965" y1="115.5409" x2="80.965" y2="91.2475" gradientTransform="matrix(1 0 0 -1 0 202)" gradientUnits="userSpaceOnUse" class="svga-on-canvas-glasses-gradient-single-0-null"><stop id="SvgjsStop9286" stop-opacity="1" stop-color="#899ba1" offset="0" ></stop><stop id="SvgjsStop9287" stop-opacity="0.6554" stop-color="#7490b3" offset="0.3446" ></stop><stop id="SvgjsStop9288" stop-opacity="0.2966" stop-color="#6589c0" offset="0.7034" ></stop><stop id="SvgjsStop9289" stop-opacity="0" stop-color="#6086c4" offset="1" ></stop></linearGradient><linearGradient id="SvgjsLinearGradient9291" x1="-1737.0349" y1="115.5409" x2="-1737.0349" y2="91.2475" gradientTransform="matrix(-1 0 0 -1 -1618 202)" gradientUnits="userSpaceOnUse" class="svga-on-canvas-glasses-gradient-single-1-null"><stop id="SvgjsStop9292" stop-opacity="1" stop-color="#899ba1" offset="0" ></stop><stop id="SvgjsStop9293" stop-opacity="0.6554" stop-color="#7490b3" offset="0.3446" ></stop><stop id="SvgjsStop9294" stop-opacity="0.2966" stop-color="#6589c0" offset="0.7034" ></stop><stop id="SvgjsStop9295" stop-opacity="0" stop-color="#6086c4" offset="1" ></stop></linearGradient></defs></svg>